<mxfile host="app.diagrams.net" modified="2021-07-12T17:55:36.066Z" agent="5.0 (Macintosh; Intel Mac OS X 10_15_6) AppleWebKit/605.1.15 (KHTML, like Gecko) Version/14.0.3 Safari/605.1.15" etag="NDHuHUAg3HDHCrVig_Bf" version="14.8.5" type="github">
  <diagram id="DMyUeyk78APtzElpY_nW" name="Page-1">
    <mxGraphModel dx="1426" dy="945" grid="1" gridSize="10" guides="1" tooltips="1" connect="1" arrows="1" fold="1" page="1" pageScale="1" pageWidth="850" pageHeight="1100" math="0" shadow="0">
      <root>
        <mxCell id="0" />
        <mxCell id="1" parent="0" />
        <mxCell id="hqBF0T61qHRGZgMMpeS9-63" value="" style="edgeStyle=orthogonalEdgeStyle;rounded=0;orthogonalLoop=1;jettySize=auto;html=1;" parent="1" source="hqBF0T61qHRGZgMMpeS9-65" edge="1">
          <mxGeometry relative="1" as="geometry">
            <mxPoint x="900" y="195" as="targetPoint" />
          </mxGeometry>
        </mxCell>
        <mxCell id="8Cj71JroViVp66wswJPq-5" style="edgeStyle=orthogonalEdgeStyle;rounded=0;orthogonalLoop=1;jettySize=auto;html=1;" edge="1" parent="1" source="hqBF0T61qHRGZgMMpeS9-65" target="hqBF0T61qHRGZgMMpeS9-76">
          <mxGeometry relative="1" as="geometry" />
        </mxCell>
        <mxCell id="hqBF0T61qHRGZgMMpeS9-65" value="Methodology" style="rounded=1;whiteSpace=wrap;html=1;" parent="1" vertex="1">
          <mxGeometry x="640" y="115" width="120" height="60" as="geometry" />
        </mxCell>
        <mxCell id="hqBF0T61qHRGZgMMpeS9-67" value="" style="edgeStyle=orthogonalEdgeStyle;rounded=0;orthogonalLoop=1;jettySize=auto;html=1;" parent="1" edge="1">
          <mxGeometry relative="1" as="geometry">
            <mxPoint x="900" y="435" as="sourcePoint" />
            <mxPoint x="900" y="455" as="targetPoint" />
          </mxGeometry>
        </mxCell>
        <mxCell id="hqBF0T61qHRGZgMMpeS9-69" style="edgeStyle=orthogonalEdgeStyle;rounded=0;orthogonalLoop=1;jettySize=auto;html=1;exitX=0.5;exitY=1;exitDx=0;exitDy=0;" parent="1" edge="1">
          <mxGeometry relative="1" as="geometry">
            <mxPoint x="700.0033333333336" y="834" as="sourcePoint" />
            <mxPoint x="700.0033333333336" y="874" as="targetPoint" />
          </mxGeometry>
        </mxCell>
        <mxCell id="hqBF0T61qHRGZgMMpeS9-72" value="" style="endArrow=none;dashed=1;html=1;" parent="1" edge="1">
          <mxGeometry width="50" height="50" relative="1" as="geometry">
            <mxPoint x="820" y="903.5" as="sourcePoint" />
            <mxPoint x="880" y="903.5" as="targetPoint" />
          </mxGeometry>
        </mxCell>
        <mxCell id="hqBF0T61qHRGZgMMpeS9-73" value="" style="endArrow=none;dashed=1;html=1;" parent="1" edge="1">
          <mxGeometry width="50" height="50" relative="1" as="geometry">
            <mxPoint x="820" y="994" as="sourcePoint" />
            <mxPoint x="820" y="904" as="targetPoint" />
          </mxGeometry>
        </mxCell>
        <mxCell id="hqBF0T61qHRGZgMMpeS9-74" value="" style="endArrow=none;dashed=1;html=1;" parent="1" edge="1">
          <mxGeometry width="50" height="50" relative="1" as="geometry">
            <mxPoint x="760" y="994" as="sourcePoint" />
            <mxPoint x="820" y="994" as="targetPoint" />
          </mxGeometry>
        </mxCell>
        <mxCell id="8Cj71JroViVp66wswJPq-6" style="edgeStyle=orthogonalEdgeStyle;rounded=0;orthogonalLoop=1;jettySize=auto;html=1;entryX=0.5;entryY=0;entryDx=0;entryDy=0;" edge="1" parent="1" source="hqBF0T61qHRGZgMMpeS9-76" target="hqBF0T61qHRGZgMMpeS9-78">
          <mxGeometry relative="1" as="geometry" />
        </mxCell>
        <mxCell id="hqBF0T61qHRGZgMMpeS9-76" value="Hyperspectral" style="shape=parallelogram;perimeter=parallelogramPerimeter;whiteSpace=wrap;html=1;fixedSize=1;" parent="1" vertex="1">
          <mxGeometry x="450" y="195" width="120" height="60" as="geometry" />
        </mxCell>
        <mxCell id="8Cj71JroViVp66wswJPq-9" style="edgeStyle=orthogonalEdgeStyle;rounded=0;orthogonalLoop=1;jettySize=auto;html=1;entryX=0;entryY=0.75;entryDx=0;entryDy=0;exitX=0.5;exitY=1;exitDx=0;exitDy=0;" edge="1" parent="1" source="hqBF0T61qHRGZgMMpeS9-78">
          <mxGeometry relative="1" as="geometry">
            <mxPoint x="510" y="479" as="sourcePoint" />
            <mxPoint x="612.2777777777778" y="538.1666666666667" as="targetPoint" />
            <Array as="points">
              <mxPoint x="510" y="538" />
            </Array>
          </mxGeometry>
        </mxCell>
        <mxCell id="hqBF0T61qHRGZgMMpeS9-78" value="&lt;span style=&quot;color: rgb(0 , 0 , 0) ; font-family: &amp;#34;helvetica&amp;#34; ; font-size: 12px ; font-style: normal ; font-weight: normal ; letter-spacing: normal ; text-align: center ; text-indent: 0px ; text-transform: none ; word-spacing: 0px ; background-color: rgb(248 , 249 , 250) ; text-decoration: none ; display: inline ; float: none&quot;&gt;Image processing done&lt;/span&gt;" style="whiteSpace=wrap;html=1;aspect=fixed;" parent="1" vertex="1">
          <mxGeometry x="470" y="385" width="80" height="80" as="geometry" />
        </mxCell>
        <mxCell id="8Cj71JroViVp66wswJPq-12" style="edgeStyle=orthogonalEdgeStyle;rounded=0;orthogonalLoop=1;jettySize=auto;html=1;" edge="1" parent="1" source="hqBF0T61qHRGZgMMpeS9-81" target="hqBF0T61qHRGZgMMpeS9-82">
          <mxGeometry relative="1" as="geometry" />
        </mxCell>
        <mxCell id="hqBF0T61qHRGZgMMpeS9-81" value="&lt;span&gt;multi-temporal&lt;/span&gt;&lt;br&gt;&lt;span&gt;(multispec)&lt;/span&gt;" style="shape=parallelogram;perimeter=parallelogramPerimeter;whiteSpace=wrap;html=1;fixedSize=1;" parent="1" vertex="1">
          <mxGeometry x="840" y="195" width="120" height="60" as="geometry" />
        </mxCell>
        <mxCell id="8Cj71JroViVp66wswJPq-13" style="edgeStyle=orthogonalEdgeStyle;rounded=0;orthogonalLoop=1;jettySize=auto;html=1;entryX=0.5;entryY=0;entryDx=0;entryDy=0;" edge="1" parent="1" source="hqBF0T61qHRGZgMMpeS9-82" target="hqBF0T61qHRGZgMMpeS9-86">
          <mxGeometry relative="1" as="geometry" />
        </mxCell>
        <mxCell id="hqBF0T61qHRGZgMMpeS9-82" value="&lt;span style=&quot;color: rgb(0, 0, 0); font-family: helvetica; font-size: 12px; font-style: normal; font-weight: normal; letter-spacing: normal; text-align: center; text-indent: 0px; text-transform: none; word-spacing: 0px; background-color: rgb(248, 249, 250); text-decoration: none; display: inline; float: none;&quot;&gt;QA and cloud masking&lt;/span&gt;" style="whiteSpace=wrap;html=1;aspect=fixed;" parent="1" vertex="1">
          <mxGeometry x="860" y="277" width="80" height="80" as="geometry" />
        </mxCell>
        <mxCell id="hqBF0T61qHRGZgMMpeS9-85" style="edgeStyle=orthogonalEdgeStyle;rounded=0;orthogonalLoop=1;jettySize=auto;html=1;exitX=0.5;exitY=1;exitDx=0;exitDy=0;" parent="1" source="hqBF0T61qHRGZgMMpeS9-86" target="hqBF0T61qHRGZgMMpeS9-89" edge="1">
          <mxGeometry relative="1" as="geometry" />
        </mxCell>
        <mxCell id="hqBF0T61qHRGZgMMpeS9-86" value="&lt;span style=&quot;color: rgb(0 , 0 , 0) ; font-family: &amp;#34;helvetica&amp;#34; ; font-size: 12px ; font-style: normal ; font-weight: normal ; letter-spacing: normal ; text-align: center ; text-indent: 0px ; text-transform: none ; word-spacing: 0px ; background-color: rgb(248 , 249 , 250) ; text-decoration: none ; display: inline ; float: none&quot;&gt;Tasseled Cap Transformation&lt;/span&gt;" style="whiteSpace=wrap;html=1;aspect=fixed;" parent="1" vertex="1">
          <mxGeometry x="860" y="385" width="80" height="80" as="geometry" />
        </mxCell>
        <mxCell id="hqBF0T61qHRGZgMMpeS9-88" style="edgeStyle=orthogonalEdgeStyle;rounded=0;orthogonalLoop=1;jettySize=auto;html=1;exitX=0;exitY=0.5;exitDx=0;exitDy=0;" parent="1" edge="1">
          <mxGeometry relative="1" as="geometry">
            <Array as="points">
              <mxPoint x="860" y="536" />
            </Array>
            <mxPoint x="860" y="511" as="sourcePoint" />
            <mxPoint x="787.6666666666665" y="536" as="targetPoint" />
          </mxGeometry>
        </mxCell>
        <mxCell id="hqBF0T61qHRGZgMMpeS9-89" value="&lt;span style=&quot;color: rgb(0, 0, 0); font-family: helvetica; font-size: 12px; font-style: normal; font-weight: normal; letter-spacing: normal; text-align: center; text-indent: 0px; text-transform: none; word-spacing: 0px; background-color: rgb(248, 249, 250); text-decoration: none; display: inline; float: none;&quot;&gt;Reducing the stack into spectral-temporal metrics&lt;/span&gt;" style="whiteSpace=wrap;html=1;aspect=fixed;" parent="1" vertex="1">
          <mxGeometry x="860" y="491" width="80" height="80" as="geometry" />
        </mxCell>
        <mxCell id="8Cj71JroViVp66wswJPq-11" style="edgeStyle=orthogonalEdgeStyle;rounded=0;orthogonalLoop=1;jettySize=auto;html=1;exitX=0.5;exitY=1;exitDx=0;exitDy=0;entryX=0.5;entryY=0;entryDx=0;entryDy=0;" edge="1" parent="1" source="hqBF0T61qHRGZgMMpeS9-94" target="hqBF0T61qHRGZgMMpeS9-99">
          <mxGeometry relative="1" as="geometry" />
        </mxCell>
        <mxCell id="hqBF0T61qHRGZgMMpeS9-94" value="&lt;span style=&quot;color: rgb(0 , 0 , 0) ; font-family: &amp;#34;helvetica&amp;#34; ; font-size: 12px ; font-style: normal ; font-weight: normal ; letter-spacing: normal ; text-align: center ; text-indent: 0px ; text-transform: none ; word-spacing: 0px ; background-color: rgb(248 , 249 , 250) ; text-decoration: none ; display: inline ; float: none&quot;&gt;Create spectral library from end member pixels&lt;/span&gt;" style="shape=parallelogram;perimeter=parallelogramPerimeter;whiteSpace=wrap;html=1;fixedSize=1;" parent="1" vertex="1">
          <mxGeometry x="605" y="512" width="190" height="60" as="geometry" />
        </mxCell>
        <mxCell id="hqBF0T61qHRGZgMMpeS9-98" style="edgeStyle=orthogonalEdgeStyle;rounded=0;orthogonalLoop=1;jettySize=auto;html=1;exitX=0.5;exitY=1;exitDx=0;exitDy=0;" parent="1" source="hqBF0T61qHRGZgMMpeS9-99" edge="1">
          <mxGeometry relative="1" as="geometry">
            <mxPoint x="700" y="774" as="targetPoint" />
            <Array as="points">
              <mxPoint x="700" y="698" />
            </Array>
          </mxGeometry>
        </mxCell>
        <mxCell id="hqBF0T61qHRGZgMMpeS9-99" value="&lt;span style=&quot;color: rgb(0, 0, 0); font-family: helvetica; font-size: 12px; font-style: normal; font-weight: normal; letter-spacing: normal; text-align: center; text-indent: 0px; text-transform: none; word-spacing: 0px; background-color: rgb(248, 249, 250); text-decoration: none; display: inline; float: none;&quot;&gt;synthetic mixing&lt;/span&gt;" style="whiteSpace=wrap;html=1;aspect=fixed;" parent="1" vertex="1">
          <mxGeometry x="660" y="637" width="80" height="80" as="geometry" />
        </mxCell>
        <mxCell id="hqBF0T61qHRGZgMMpeS9-107" style="edgeStyle=orthogonalEdgeStyle;rounded=0;orthogonalLoop=1;jettySize=auto;html=1;exitX=0;exitY=0.5;exitDx=0;exitDy=0;entryX=1;entryY=0.5;entryDx=0;entryDy=0;" parent="1" source="hqBF0T61qHRGZgMMpeS9-108" target="hqBF0T61qHRGZgMMpeS9-110" edge="1">
          <mxGeometry relative="1" as="geometry" />
        </mxCell>
        <mxCell id="hqBF0T61qHRGZgMMpeS9-108" value="&lt;span style=&quot;color: rgb(0 , 0 , 0) ; font-family: &amp;#34;helvetica&amp;#34; ; font-size: 12px ; font-style: normal ; font-weight: normal ; letter-spacing: normal ; text-align: center ; text-indent: 0px ; text-transform: none ; word-spacing: 0px ; background-color: rgb(248 , 249 , 250) ; text-decoration: none ; display: inline ; float: none&quot;&gt;Regression model training&lt;/span&gt;" style="whiteSpace=wrap;html=1;aspect=fixed;" parent="1" vertex="1">
          <mxGeometry x="660" y="774" width="80" height="80" as="geometry" />
        </mxCell>
        <mxCell id="hqBF0T61qHRGZgMMpeS9-109" style="edgeStyle=orthogonalEdgeStyle;rounded=0;orthogonalLoop=1;jettySize=auto;html=1;exitX=0.5;exitY=1;exitDx=0;exitDy=0;entryX=0;entryY=0.5;entryDx=0;entryDy=0;" parent="1" source="hqBF0T61qHRGZgMMpeS9-110" target="hqBF0T61qHRGZgMMpeS9-111" edge="1">
          <mxGeometry relative="1" as="geometry" />
        </mxCell>
        <mxCell id="hqBF0T61qHRGZgMMpeS9-110" value="&lt;span style=&quot;color: rgb(0 , 0 , 0) ; font-family: &amp;#34;helvetica&amp;#34; ; font-size: 12px ; font-style: normal ; font-weight: normal ; letter-spacing: normal ; text-align: center ; text-indent: 0px ; text-transform: none ; word-spacing: 0px ; background-color: rgb(248 , 249 , 250) ; text-decoration: none ; display: inline ; float: none&quot;&gt;Comparing &lt;br&gt;SVM and RF&lt;/span&gt;" style="rhombus;whiteSpace=wrap;html=1;" parent="1" vertex="1">
          <mxGeometry x="460" y="763.5" width="100" height="101" as="geometry" />
        </mxCell>
        <mxCell id="8Cj71JroViVp66wswJPq-20" style="edgeStyle=orthogonalEdgeStyle;rounded=0;orthogonalLoop=1;jettySize=auto;html=1;" edge="1" parent="1" source="hqBF0T61qHRGZgMMpeS9-111" target="hqBF0T61qHRGZgMMpeS9-112">
          <mxGeometry relative="1" as="geometry" />
        </mxCell>
        <mxCell id="hqBF0T61qHRGZgMMpeS9-111" value="&lt;span style=&quot;color: rgb(0, 0, 0); font-family: helvetica; font-size: 12px; font-style: normal; font-weight: normal; letter-spacing: normal; text-align: center; text-indent: 0px; text-transform: none; word-spacing: 0px; background-color: rgb(248, 249, 250); text-decoration: none; display: inline; float: none;&quot;&gt;class fraction estimates&lt;/span&gt;" style="whiteSpace=wrap;html=1;aspect=fixed;" parent="1" vertex="1">
          <mxGeometry x="660" y="874" width="80" height="80" as="geometry" />
        </mxCell>
        <mxCell id="hqBF0T61qHRGZgMMpeS9-112" value="&lt;font face=&quot;helvetica&quot;&gt;Final Map&amp;nbsp;&lt;/font&gt;" style="rounded=1;whiteSpace=wrap;html=1;" parent="1" vertex="1">
          <mxGeometry x="640" y="979" width="120" height="60" as="geometry" />
        </mxCell>
        <mxCell id="hqBF0T61qHRGZgMMpeS9-113" value="&lt;span style=&quot;color: rgb(0, 0, 0); font-family: helvetica; font-size: 12px; font-style: normal; font-weight: normal; letter-spacing: normal; text-align: center; text-indent: 0px; text-transform: none; word-spacing: 0px; background-color: rgb(248, 249, 250); text-decoration: none; display: inline; float: none;&quot;&gt;external data validation&amp;nbsp;&lt;/span&gt;" style="whiteSpace=wrap;html=1;aspect=fixed;" parent="1" vertex="1">
          <mxGeometry x="860" y="874" width="80" height="80" as="geometry" />
        </mxCell>
        <mxCell id="8Cj71JroViVp66wswJPq-16" style="edgeStyle=orthogonalEdgeStyle;rounded=0;orthogonalLoop=1;jettySize=auto;html=1;entryX=0.5;entryY=0;entryDx=0;entryDy=0;" edge="1" parent="1" source="hqBF0T61qHRGZgMMpeS9-114" target="hqBF0T61qHRGZgMMpeS9-113">
          <mxGeometry relative="1" as="geometry" />
        </mxCell>
        <mxCell id="hqBF0T61qHRGZgMMpeS9-114" value="&lt;span style=&quot;color: rgb(0 , 0 , 0) ; font-family: &amp;#34;helvetica&amp;#34; ; font-size: 12px ; font-style: normal ; font-weight: normal ; letter-spacing: normal ; text-align: center ; text-indent: 0px ; text-transform: none ; word-spacing: 0px ; background-color: rgb(248 , 249 , 250) ; text-decoration: none ; display: inline ; float: none&quot;&gt;Land cover map from Cooper et al 2020&lt;/span&gt;" style="shape=parallelogram;perimeter=parallelogramPerimeter;whiteSpace=wrap;html=1;fixedSize=1;" parent="1" vertex="1">
          <mxGeometry x="840" y="780.75" width="120" height="66.5" as="geometry" />
        </mxCell>
        <mxCell id="hqBF0T61qHRGZgMMpeS9-115" style="edgeStyle=none;orthogonalLoop=1;jettySize=auto;html=1;exitX=0.5;exitY=1;exitDx=0;exitDy=0;exitPerimeter=0;dashed=1;endArrow=none;" parent="1" edge="1">
          <mxGeometry relative="1" as="geometry">
            <mxPoint x="355" y="575" as="sourcePoint" />
            <mxPoint x="355" y="575" as="targetPoint" />
          </mxGeometry>
        </mxCell>
        <mxCell id="hqBF0T61qHRGZgMMpeS9-116" value="" style="strokeWidth=2;html=1;shape=mxgraph.flowchart.annotation_2;align=left;labelPosition=right;pointerEvents=1;" parent="1" vertex="1">
          <mxGeometry x="310" y="120" width="60" height="530" as="geometry" />
        </mxCell>
        <mxCell id="hqBF0T61qHRGZgMMpeS9-118" value="" style="strokeWidth=2;html=1;shape=mxgraph.flowchart.annotation_2;align=left;labelPosition=right;pointerEvents=1;fillColor=#D4E1F5;" parent="1" vertex="1">
          <mxGeometry x="346" y="650" width="50" height="260" as="geometry" />
        </mxCell>
        <mxCell id="hqBF0T61qHRGZgMMpeS9-120" value="&lt;font color=&quot;#666666&quot;&gt;&lt;span&gt;&lt;b&gt;1. &amp;nbsp;Image Processing&lt;/b&gt;&lt;/span&gt;&lt;/font&gt;" style="text;html=1;strokeColor=none;fillColor=none;align=center;verticalAlign=middle;whiteSpace=wrap;rounded=0;" parent="1" vertex="1">
          <mxGeometry x="239" y="377.5" width="40" height="15" as="geometry" />
        </mxCell>
        <mxCell id="hqBF0T61qHRGZgMMpeS9-121" value="&lt;font color=&quot;#666666&quot;&gt;&lt;span&gt;&lt;b&gt;2. &lt;br&gt;Synthetic mixing &lt;br&gt;&amp;amp; &amp;nbsp;Regression&lt;br&gt;based&amp;nbsp;&lt;br&gt;unmixing&amp;nbsp;&lt;br&gt;&lt;/b&gt;&lt;/span&gt;&lt;/font&gt;" style="text;html=1;strokeColor=none;fillColor=none;align=center;verticalAlign=middle;whiteSpace=wrap;rounded=0;" parent="1" vertex="1">
          <mxGeometry x="185" y="763.5" width="150" height="20" as="geometry" />
        </mxCell>
        <mxCell id="hqBF0T61qHRGZgMMpeS9-122" value="" style="strokeWidth=2;html=1;shape=mxgraph.flowchart.annotation_2;align=left;labelPosition=right;pointerEvents=1;fillColor=#D4E1F5;" parent="1" vertex="1">
          <mxGeometry x="370" y="910" width="50" height="100" as="geometry" />
        </mxCell>
        <mxCell id="hqBF0T61qHRGZgMMpeS9-123" value="&lt;font color=&quot;#666666&quot;&gt;&lt;span&gt;&lt;b&gt;3.&lt;br&gt;Map Validation&lt;br&gt;&lt;/b&gt;&lt;/span&gt;&lt;/font&gt;" style="text;html=1;strokeColor=none;fillColor=none;align=center;verticalAlign=middle;whiteSpace=wrap;rounded=0;" parent="1" vertex="1">
          <mxGeometry x="239" y="950" width="40" height="20" as="geometry" />
        </mxCell>
        <mxCell id="hqBF0T61qHRGZgMMpeS9-124" style="edgeStyle=none;orthogonalLoop=1;jettySize=auto;html=1;exitX=0.75;exitY=0;exitDx=0;exitDy=0;entryX=0;entryY=0.25;entryDx=0;entryDy=0;dashed=1;endArrow=none;strokeColor=#D4E1F5;" parent="1" edge="1">
          <mxGeometry relative="1" as="geometry">
            <mxPoint x="280" y="683.5" as="sourcePoint" />
            <mxPoint x="250" y="688.5" as="targetPoint" />
          </mxGeometry>
        </mxCell>
        <mxCell id="8Cj71JroViVp66wswJPq-18" style="edgeStyle=orthogonalEdgeStyle;rounded=0;orthogonalLoop=1;jettySize=auto;html=1;" edge="1" parent="1" source="8Cj71JroViVp66wswJPq-1" target="hqBF0T61qHRGZgMMpeS9-94">
          <mxGeometry relative="1" as="geometry" />
        </mxCell>
        <mxCell id="8Cj71JroViVp66wswJPq-1" value="&lt;span style=&quot;color: rgb(0, 0, 0); font-family: helvetica; font-size: 12px; font-style: normal; font-weight: normal; letter-spacing: normal; text-align: center; text-indent: 0px; text-transform: none; word-spacing: 0px; background-color: rgb(248, 249, 250); text-decoration: none; display: inline; float: none;&quot;&gt;training data point collection&lt;/span&gt;" style="whiteSpace=wrap;html=1;aspect=fixed;" vertex="1" parent="1">
          <mxGeometry x="660" y="385" width="80" height="80" as="geometry" />
        </mxCell>
      </root>
    </mxGraphModel>
  </diagram>
</mxfile>
